STARTFONT 2.1
COMMENT from https://xeroxalto.computerhistory.org/_cd8_/alto/.sysfont.al!2.html
COMMENT encoding is ascii, except 0x5e and 0x5f which are arrows as in ascii-1963
COMMENT however 0x7c and 0x7e are as in ascii-1968
FONT --Sysfont-Regular-R-Normal--12-120-72-72-P-68-FONTSPECIFIC-0
SIZE 12 72 72
FONTBOUNDINGBOX 12 12 0 -3
METRICSSET 2
STARTPROPERTIES 17
PIXEL_SIZE 12
RESOLUTION_X 72
RESOLUTION_Y 72
POINT_SIZE 120
FACE_NAME "Xerox Alto SysFont"
FOUNDRY ""
FAMILY_NAME "Sysfont"
WEIGHT_NAME "Regular"
RELATIVE_WEIGHT 50
SLANT "R"
SPACING "P"
SETWIDTH_NAME "Normal"
RELATIVE_SETWIDTH 50
ADD_STYLE_NAME ""
AVERAGE_WIDTH 68
CHARSET_REGISTRY "FONTSPECIFIC"
CHARSET_ENCODING "0"
ENDPROPERTIES
CHARS 95
STARTCHAR char18
ENCODING 24
SWIDTH 0 0
DWIDTH 0 0
BBX 12 1 0 -3
VVECTOR 4 -2
SWIDTH1 0 -83
DWIDTH1 0 -1
BITMAP 
FFF0
ENDCHAR
STARTCHAR space
ENCODING 32
SWIDTH 417 0
DWIDTH 5 0
BBX 0 0 16 9
VVECTOR 24 9
SWIDTH1 0 -750
DWIDTH1 0 -9
BITMAP 
ENDCHAR
STARTCHAR exclam
ENCODING 33
SWIDTH 250 0
DWIDTH 3 0
BBX 1 8 1 0
VVECTOR -5 8
SWIDTH1 0 -667
DWIDTH1 0 -8
BITMAP 
80
80
80
80
80
00
80
80
ENDCHAR
STARTCHAR quotedbl
ENCODING 34
SWIDTH 417 0
DWIDTH 5 0
BBX 3 3 1 5
VVECTOR -3 8
SWIDTH1 0 -250
DWIDTH1 0 -3
BITMAP 
A0
A0
A0
ENDCHAR
STARTCHAR numbersign
ENCODING 35
SWIDTH 833 0
DWIDTH 10 0
BBX 8 8 1 0
VVECTOR 2 8
SWIDTH1 0 -667
DWIDTH1 0 -8
BITMAP 
12
12
7F
24
24
FE
48
48
ENDCHAR
STARTCHAR dollar
ENCODING 36
SWIDTH 583 0
DWIDTH 7 0
BBX 5 10 1 -1
VVECTOR -1 9
SWIDTH1 0 -833
DWIDTH1 0 -10
BITMAP 
20
78
A8
A0
70
28
28
A8
F0
20
ENDCHAR
STARTCHAR percent
ENCODING 37
SWIDTH 1000 0
DWIDTH 12 0
BBX 10 8 1 0
VVECTOR 4 8
SWIDTH1 0 -667
DWIDTH1 0 -8
BITMAP 
6E00
9200
9400
6400
0980
0A40
1240
1180
ENDCHAR
STARTCHAR ampersand
ENCODING 38
SWIDTH 833 0
DWIDTH 10 0
BBX 8 8 1 0
VVECTOR 2 8
SWIDTH1 0 -667
DWIDTH1 0 -8
BITMAP 
10
28
28
32
54
8C
89
76
ENDCHAR
STARTCHAR quotesingle
ENCODING 39
SWIDTH 250 0
DWIDTH 3 0
BBX 1 3 1 5
VVECTOR -5 8
SWIDTH1 0 -250
DWIDTH1 0 -3
BITMAP 
80
80
80
ENDCHAR
STARTCHAR parenleft
ENCODING 40
SWIDTH 417 0
DWIDTH 5 0
BBX 3 11 1 -3
VVECTOR -3 8
SWIDTH1 0 -917
DWIDTH1 0 -11
BITMAP 
20
40
40
80
80
80
80
80
40
40
20
ENDCHAR
STARTCHAR parenright
ENCODING 41
SWIDTH 417 0
DWIDTH 5 0
BBX 3 11 1 -3
VVECTOR -3 8
SWIDTH1 0 -917
DWIDTH1 0 -11
BITMAP 
80
40
40
20
20
20
20
20
40
40
80
ENDCHAR
STARTCHAR asterisk
ENCODING 42
SWIDTH 583 0
DWIDTH 7 0
BBX 5 5 1 4
VVECTOR -1 9
SWIDTH1 0 -417
DWIDTH1 0 -5
BITMAP 
20
A8
70
A8
20
ENDCHAR
STARTCHAR plus
ENCODING 43
SWIDTH 583 0
DWIDTH 7 0
BBX 5 5 1 0
VVECTOR -1 5
SWIDTH1 0 -417
DWIDTH1 0 -5
BITMAP 
20
20
F8
20
20
ENDCHAR
STARTCHAR comma
ENCODING 44
SWIDTH 333 0
DWIDTH 4 0
BBX 2 4 1 -2
VVECTOR -4 2
SWIDTH1 0 -333
DWIDTH1 0 -4
BITMAP 
C0
40
40
80
ENDCHAR
STARTCHAR hyphen
ENCODING 45
SWIDTH 500 0
DWIDTH 6 0
BBX 4 1 1 3
VVECTOR -2 4
SWIDTH1 0 -83
DWIDTH1 0 -1
BITMAP 
F0
ENDCHAR
STARTCHAR period
ENCODING 46
SWIDTH 250 0
DWIDTH 3 0
BBX 1 2 1 0
VVECTOR -5 2
SWIDTH1 0 -167
DWIDTH1 0 -2
BITMAP 
80
80
ENDCHAR
STARTCHAR slash
ENCODING 47
SWIDTH 500 0
DWIDTH 6 0
BBX 4 8 1 0
VVECTOR -2 8
SWIDTH1 0 -667
DWIDTH1 0 -8
BITMAP 
10
10
20
20
40
40
80
80
ENDCHAR
STARTCHAR zero
ENCODING 48
SWIDTH 500 0
DWIDTH 6 0
BBX 4 8 1 0
VVECTOR -2 8
SWIDTH1 0 -667
DWIDTH1 0 -8
BITMAP 
60
90
90
90
90
90
90
60
ENDCHAR
STARTCHAR one
ENCODING 49
SWIDTH 500 0
DWIDTH 6 0
BBX 3 8 2 0
VVECTOR -1 8
SWIDTH1 0 -667
DWIDTH1 0 -8
BITMAP 
40
C0
40
40
40
40
40
E0
ENDCHAR
STARTCHAR two
ENCODING 50
SWIDTH 500 0
DWIDTH 6 0
BBX 5 8 1 0
VVECTOR -1 8
SWIDTH1 0 -667
DWIDTH1 0 -8
BITMAP 
60
90
10
10
20
40
88
F0
ENDCHAR
STARTCHAR three
ENCODING 51
SWIDTH 500 0
DWIDTH 6 0
BBX 4 8 1 0
VVECTOR -2 8
SWIDTH1 0 -667
DWIDTH1 0 -8
BITMAP 
60
90
10
60
10
10
90
60
ENDCHAR
STARTCHAR four
ENCODING 52
SWIDTH 500 0
DWIDTH 6 0
BBX 5 8 1 0
VVECTOR -1 8
SWIDTH1 0 -667
DWIDTH1 0 -8
BITMAP 
30
50
50
90
90
F8
10
10
ENDCHAR
STARTCHAR five
ENCODING 53
SWIDTH 500 0
DWIDTH 6 0
BBX 4 8 1 0
VVECTOR -2 8
SWIDTH1 0 -667
DWIDTH1 0 -8
BITMAP 
30
40
40
20
10
10
90
60
ENDCHAR
STARTCHAR six
ENCODING 54
SWIDTH 500 0
DWIDTH 6 0
BBX 4 8 1 0
VVECTOR -2 8
SWIDTH1 0 -667
DWIDTH1 0 -8
BITMAP 
30
40
80
E0
90
90
90
60
ENDCHAR
STARTCHAR seven
ENCODING 55
SWIDTH 500 0
DWIDTH 6 0
BBX 4 8 1 0
VVECTOR -2 8
SWIDTH1 0 -667
DWIDTH1 0 -8
BITMAP 
70
90
10
20
20
40
40
40
ENDCHAR
STARTCHAR eight
ENCODING 56
SWIDTH 500 0
DWIDTH 6 0
BBX 4 8 1 0
VVECTOR -2 8
SWIDTH1 0 -667
DWIDTH1 0 -8
BITMAP 
60
90
90
60
90
90
90
60
ENDCHAR
STARTCHAR nine
ENCODING 57
SWIDTH 500 0
DWIDTH 6 0
BBX 4 8 1 0
VVECTOR -2 8
SWIDTH1 0 -667
DWIDTH1 0 -8
BITMAP 
60
90
90
90
70
10
20
C0
ENDCHAR
STARTCHAR colon
ENCODING 58
SWIDTH 250 0
DWIDTH 3 0
BBX 1 6 1 0
VVECTOR -5 6
SWIDTH1 0 -500
DWIDTH1 0 -6
BITMAP 
80
80
00
00
80
80
ENDCHAR
STARTCHAR semicolon
ENCODING 59
SWIDTH 333 0
DWIDTH 4 0
BBX 2 8 1 -2
VVECTOR -4 6
SWIDTH1 0 -667
DWIDTH1 0 -8
BITMAP 
40
40
00
00
C0
40
40
80
ENDCHAR
STARTCHAR less
ENCODING 60
SWIDTH 500 0
DWIDTH 6 0
BBX 4 8 1 0
VVECTOR -2 8
SWIDTH1 0 -667
DWIDTH1 0 -8
BITMAP 
10
20
40
80
80
40
20
10
ENDCHAR
STARTCHAR equal
ENCODING 61
SWIDTH 500 0
DWIDTH 6 0
BBX 4 3 1 1
VVECTOR -2 4
SWIDTH1 0 -250
DWIDTH1 0 -3
BITMAP 
F0
00
F0
ENDCHAR
STARTCHAR greater
ENCODING 62
SWIDTH 500 0
DWIDTH 6 0
BBX 4 8 1 0
VVECTOR -2 8
SWIDTH1 0 -667
DWIDTH1 0 -8
BITMAP 
80
40
20
10
10
20
40
80
ENDCHAR
STARTCHAR question
ENCODING 63
SWIDTH 500 0
DWIDTH 6 0
BBX 4 8 1 0
VVECTOR -2 8
SWIDTH1 0 -667
DWIDTH1 0 -8
BITMAP 
60
90
10
20
40
00
40
40
ENDCHAR
STARTCHAR at
ENCODING 64
SWIDTH 1000 0
DWIDTH 12 0
BBX 10 9 1 -1
VVECTOR 4 8
SWIDTH1 0 -750
DWIDTH1 0 -9
BITMAP 
1F00
6080
4E40
9240
9240
9280
4D00
6040
1F80
ENDCHAR
STARTCHAR A
ENCODING 65
SWIDTH 833 0
DWIDTH 10 0
BBX 9 8 0 0
VVECTOR 1 8
SWIDTH1 0 -667
DWIDTH1 0 -8
BITMAP 
0800
0800
1400
1400
2200
3E00
4100
E380
ENDCHAR
STARTCHAR B
ENCODING 66
SWIDTH 667 0
DWIDTH 8 0
BBX 7 8 0 0
VVECTOR -1 8
SWIDTH1 0 -667
DWIDTH1 0 -8
BITMAP 
FC
42
42
7C
42
42
42
FC
ENDCHAR
STARTCHAR C
ENCODING 67
SWIDTH 667 0
DWIDTH 8 0
BBX 7 8 0 0
VVECTOR -1 8
SWIDTH1 0 -667
DWIDTH1 0 -8
BITMAP 
3A
46
82
80
80
80
42
3C
ENDCHAR
STARTCHAR D
ENCODING 68
SWIDTH 750 0
DWIDTH 9 0
BBX 8 8 0 0
VVECTOR 0 8
SWIDTH1 0 -667
DWIDTH1 0 -8
BITMAP 
FC
42
41
41
41
41
42
FC
ENDCHAR
STARTCHAR E
ENCODING 69
SWIDTH 667 0
DWIDTH 8 0
BBX 7 8 0 0
VVECTOR -1 8
SWIDTH1 0 -667
DWIDTH1 0 -8
BITMAP 
FC
42
48
78
48
40
42
FC
ENDCHAR
STARTCHAR F
ENCODING 70
SWIDTH 667 0
DWIDTH 8 0
BBX 7 8 0 0
VVECTOR -1 8
SWIDTH1 0 -667
DWIDTH1 0 -8
BITMAP 
FC
42
48
78
48
40
40
F0
ENDCHAR
STARTCHAR G
ENCODING 71
SWIDTH 750 0
DWIDTH 9 0
BBX 8 8 0 0
VVECTOR 0 8
SWIDTH1 0 -667
DWIDTH1 0 -8
BITMAP 
3A
46
80
80
87
82
42
3C
ENDCHAR
STARTCHAR H
ENCODING 72
SWIDTH 750 0
DWIDTH 9 0
BBX 8 8 0 0
VVECTOR 0 8
SWIDTH1 0 -667
DWIDTH1 0 -8
BITMAP 
E7
42
42
7E
42
42
42
E7
ENDCHAR
STARTCHAR I
ENCODING 73
SWIDTH 333 0
DWIDTH 4 0
BBX 3 8 0 0
VVECTOR -5 8
SWIDTH1 0 -667
DWIDTH1 0 -8
BITMAP 
E0
40
40
40
40
40
40
E0
ENDCHAR
STARTCHAR J
ENCODING 74
SWIDTH 417 0
DWIDTH 5 0
BBX 4 8 0 0
VVECTOR -4 8
SWIDTH1 0 -667
DWIDTH1 0 -8
BITMAP 
70
20
20
20
20
20
A0
C0
ENDCHAR
STARTCHAR K
ENCODING 75
SWIDTH 750 0
DWIDTH 9 0
BBX 8 8 0 0
VVECTOR 0 8
SWIDTH1 0 -667
DWIDTH1 0 -8
BITMAP 
E6
44
48
70
58
4C
46
E3
ENDCHAR
STARTCHAR L
ENCODING 76
SWIDTH 667 0
DWIDTH 8 0
BBX 7 8 0 0
VVECTOR -1 8
SWIDTH1 0 -667
DWIDTH1 0 -8
BITMAP 
E0
40
40
40
40
40
42
FC
ENDCHAR
STARTCHAR M
ENCODING 77
SWIDTH 1000 0
DWIDTH 12 0
BBX 11 8 0 0
VVECTOR 3 8
SWIDTH1 0 -667
DWIDTH1 0 -8
BITMAP 
E0E0
60C0
5140
5140
4A40
4A40
4440
E4E0
ENDCHAR
STARTCHAR N
ENCODING 78
SWIDTH 750 0
DWIDTH 9 0
BBX 8 8 0 0
VVECTOR 0 8
SWIDTH1 0 -667
DWIDTH1 0 -8
BITMAP 
E7
62
52
52
4A
4A
46
E6
ENDCHAR
STARTCHAR O
ENCODING 79
SWIDTH 750 0
DWIDTH 9 0
BBX 8 8 0 0
VVECTOR 0 8
SWIDTH1 0 -667
DWIDTH1 0 -8
BITMAP 
3C
42
81
81
81
81
42
3C
ENDCHAR
STARTCHAR P
ENCODING 80
SWIDTH 583 0
DWIDTH 7 0
BBX 6 8 0 0
VVECTOR -2 8
SWIDTH1 0 -667
DWIDTH1 0 -8
BITMAP 
F8
44
44
44
78
40
40
E0
ENDCHAR
STARTCHAR Q
ENCODING 81
SWIDTH 750 0
DWIDTH 9 0
BBX 8 10 0 -2
VVECTOR 0 8
SWIDTH1 0 -833
DWIDTH1 0 -10
BITMAP 
3C
42
81
81
81
81
42
3C
08
06
ENDCHAR
STARTCHAR R
ENCODING 82
SWIDTH 667 0
DWIDTH 8 0
BBX 7 8 0 0
VVECTOR -1 8
SWIDTH1 0 -667
DWIDTH1 0 -8
BITMAP 
F8
44
44
78
50
48
44
E6
ENDCHAR
STARTCHAR S
ENCODING 83
SWIDTH 500 0
DWIDTH 6 0
BBX 5 8 0 0
VVECTOR -3 8
SWIDTH1 0 -667
DWIDTH1 0 -8
BITMAP 
68
98
80
60
10
88
C8
B0
ENDCHAR
STARTCHAR T
ENCODING 84
SWIDTH 667 0
DWIDTH 8 0
BBX 7 8 0 0
VVECTOR -1 8
SWIDTH1 0 -667
DWIDTH1 0 -8
BITMAP 
FE
92
10
10
10
10
10
38
ENDCHAR
STARTCHAR U
ENCODING 85
SWIDTH 750 0
DWIDTH 9 0
BBX 8 8 0 0
VVECTOR 0 8
SWIDTH1 0 -667
DWIDTH1 0 -8
BITMAP 
E7
42
42
42
42
42
42
3C
ENDCHAR
STARTCHAR V
ENCODING 86
SWIDTH 833 0
DWIDTH 10 0
BBX 9 8 0 0
VVECTOR 1 8
SWIDTH1 0 -667
DWIDTH1 0 -8
BITMAP 
E380
4100
4100
2200
2200
1400
1400
0800
ENDCHAR
STARTCHAR W
ENCODING 87
SWIDTH 1000 0
DWIDTH 12 0
BBX 11 8 0 0
VVECTOR 3 8
SWIDTH1 0 -667
DWIDTH1 0 -8
BITMAP 
EEE0
4440
4440
2A80
2A80
2A80
1100
1100
ENDCHAR
STARTCHAR X
ENCODING 88
SWIDTH 667 0
DWIDTH 8 0
BBX 7 8 0 0
VVECTOR -1 8
SWIDTH1 0 -667
DWIDTH1 0 -8
BITMAP 
EE
44
28
10
10
28
44
EE
ENDCHAR
STARTCHAR Y
ENCODING 89
SWIDTH 667 0
DWIDTH 8 0
BBX 7 8 0 0
VVECTOR -1 8
SWIDTH1 0 -667
DWIDTH1 0 -8
BITMAP 
EE
44
28
28
10
10
10
38
ENDCHAR
STARTCHAR Z
ENCODING 90
SWIDTH 583 0
DWIDTH 7 0
BBX 6 8 0 0
VVECTOR -2 8
SWIDTH1 0 -667
DWIDTH1 0 -8
BITMAP 
7C
84
08
10
20
40
84
F8
ENDCHAR
STARTCHAR bracketleft
ENCODING 91
SWIDTH 417 0
DWIDTH 5 0
BBX 3 11 1 -3
VVECTOR -3 8
SWIDTH1 0 -917
DWIDTH1 0 -11
BITMAP 
E0
80
80
80
80
80
80
80
80
80
E0
ENDCHAR
STARTCHAR backslash
ENCODING 92
SWIDTH 500 0
DWIDTH 6 0
BBX 4 8 1 0
VVECTOR -2 8
SWIDTH1 0 -667
DWIDTH1 0 -8
BITMAP 
80
80
40
40
20
20
10
10
ENDCHAR
STARTCHAR bracketright
ENCODING 93
SWIDTH 417 0
DWIDTH 5 0
BBX 3 11 1 -3
VVECTOR -3 8
SWIDTH1 0 -917
DWIDTH1 0 -11
BITMAP 
E0
20
20
20
20
20
20
20
20
20
E0
ENDCHAR
STARTCHAR arrowup
ENCODING 94
SWIDTH 583 0
DWIDTH 7 0
BBX 5 6 1 0
VVECTOR -1 6
SWIDTH1 0 -500
DWIDTH1 0 -6
BITMAP 
20
70
A8
20
20
20
ENDCHAR
STARTCHAR arrowleft
ENCODING 95
SWIDTH 667 0
DWIDTH 8 0
BBX 6 5 1 1
VVECTOR 0 6
SWIDTH1 0 -417
DWIDTH1 0 -5
BITMAP 
20
40
FC
40
20
ENDCHAR
STARTCHAR a
ENCODING 97
SWIDTH 500 0
DWIDTH 6 0
BBX 6 6 0 0
VVECTOR -2 6
SWIDTH1 0 -500
DWIDTH1 0 -6
BITMAP 
70
08
78
88
88
74
ENDCHAR
STARTCHAR b
ENCODING 98
SWIDTH 583 0
DWIDTH 7 0
BBX 6 8 0 0
VVECTOR -2 8
SWIDTH1 0 -667
DWIDTH1 0 -8
BITMAP 
C0
40
58
64
44
44
44
38
ENDCHAR
STARTCHAR c
ENCODING 99
SWIDTH 500 0
DWIDTH 6 0
BBX 5 6 0 0
VVECTOR -3 6
SWIDTH1 0 -500
DWIDTH1 0 -6
BITMAP 
70
88
80
80
88
70
ENDCHAR
STARTCHAR d
ENCODING 100
SWIDTH 583 0
DWIDTH 7 0
BBX 6 8 0 0
VVECTOR -2 8
SWIDTH1 0 -667
DWIDTH1 0 -8
BITMAP 
18
08
68
98
88
88
88
74
ENDCHAR
STARTCHAR e
ENCODING 101
SWIDTH 500 0
DWIDTH 6 0
BBX 5 6 0 0
VVECTOR -3 6
SWIDTH1 0 -500
DWIDTH1 0 -6
BITMAP 
70
88
F8
80
88
70
ENDCHAR
STARTCHAR f
ENCODING 102
SWIDTH 417 0
DWIDTH 5 0
BBX 5 8 0 0
VVECTOR -3 8
SWIDTH1 0 -667
DWIDTH1 0 -8
BITMAP 
30
48
E0
40
40
40
40
E0
ENDCHAR
STARTCHAR g
ENCODING 103
SWIDTH 583 0
DWIDTH 7 0
BBX 5 8 1 -2
VVECTOR -1 6
SWIDTH1 0 -667
DWIDTH1 0 -8
BITMAP 
68
90
90
60
80
70
88
F0
ENDCHAR
STARTCHAR h
ENCODING 104
SWIDTH 667 0
DWIDTH 8 0
BBX 7 8 0 0
VVECTOR -1 8
SWIDTH1 0 -667
DWIDTH1 0 -8
BITMAP 
C0
40
58
64
44
44
44
EE
ENDCHAR
STARTCHAR i
ENCODING 105
SWIDTH 333 0
DWIDTH 4 0
BBX 3 8 0 0
VVECTOR -5 8
SWIDTH1 0 -667
DWIDTH1 0 -8
BITMAP 
40
00
C0
40
40
40
40
E0
ENDCHAR
STARTCHAR j
ENCODING 106
SWIDTH 333 0
DWIDTH 4 0
BBX 3 10 0 -2
VVECTOR -5 8
SWIDTH1 0 -833
DWIDTH1 0 -10
BITMAP 
20
00
60
20
20
20
20
20
A0
C0
ENDCHAR
STARTCHAR k
ENCODING 107
SWIDTH 583 0
DWIDTH 7 0
BBX 6 8 0 0
VVECTOR -2 8
SWIDTH1 0 -667
DWIDTH1 0 -8
BITMAP 
C0
40
4C
50
60
50
48
EC
ENDCHAR
STARTCHAR l
ENCODING 108
SWIDTH 333 0
DWIDTH 4 0
BBX 3 8 0 0
VVECTOR -5 8
SWIDTH1 0 -667
DWIDTH1 0 -8
BITMAP 
C0
40
40
40
40
40
40
E0
ENDCHAR
STARTCHAR m
ENCODING 109
SWIDTH 833 0
DWIDTH 10 0
BBX 9 6 0 0
VVECTOR 1 6
SWIDTH1 0 -500
DWIDTH1 0 -6
BITMAP 
B600
4900
4900
4900
4900
DD80
ENDCHAR
STARTCHAR n
ENCODING 110
SWIDTH 667 0
DWIDTH 8 0
BBX 7 6 0 0
VVECTOR -1 6
SWIDTH1 0 -500
DWIDTH1 0 -6
BITMAP 
D8
64
44
44
44
EE
ENDCHAR
STARTCHAR o
ENCODING 111
SWIDTH 500 0
DWIDTH 6 0
BBX 5 6 0 0
VVECTOR -3 6
SWIDTH1 0 -500
DWIDTH1 0 -6
BITMAP 
70
88
88
88
88
70
ENDCHAR
STARTCHAR p
ENCODING 112
SWIDTH 583 0
DWIDTH 7 0
BBX 6 8 0 -2
VVECTOR -2 6
SWIDTH1 0 -667
DWIDTH1 0 -8
BITMAP 
D8
64
44
44
64
58
40
E0
ENDCHAR
STARTCHAR q
ENCODING 113
SWIDTH 500 0
DWIDTH 6 0
BBX 6 8 0 -2
VVECTOR -2 6
SWIDTH1 0 -667
DWIDTH1 0 -8
BITMAP 
68
98
88
88
98
68
08
1C
ENDCHAR
STARTCHAR r
ENCODING 114
SWIDTH 417 0
DWIDTH 5 0
BBX 4 6 0 0
VVECTOR -4 6
SWIDTH1 0 -500
DWIDTH1 0 -6
BITMAP 
F0
50
40
40
40
E0
ENDCHAR
STARTCHAR s
ENCODING 115
SWIDTH 417 0
DWIDTH 5 0
BBX 4 6 0 0
VVECTOR -4 6
SWIDTH1 0 -500
DWIDTH1 0 -6
BITMAP 
70
80
60
10
90
E0
ENDCHAR
STARTCHAR t
ENCODING 116
SWIDTH 333 0
DWIDTH 4 0
BBX 4 7 0 0
VVECTOR -4 7
SWIDTH1 0 -583
DWIDTH1 0 -7
BITMAP 
40
E0
40
40
40
50
20
ENDCHAR
STARTCHAR u
ENCODING 117
SWIDTH 667 0
DWIDTH 8 0
BBX 7 6 0 0
VVECTOR -1 6
SWIDTH1 0 -500
DWIDTH1 0 -6
BITMAP 
CC
44
44
44
44
3A
ENDCHAR
STARTCHAR v
ENCODING 118
SWIDTH 667 0
DWIDTH 8 0
BBX 7 6 0 0
VVECTOR -1 6
SWIDTH1 0 -500
DWIDTH1 0 -6
BITMAP 
EE
44
44
28
28
10
ENDCHAR
STARTCHAR w
ENCODING 119
SWIDTH 833 0
DWIDTH 10 0
BBX 9 6 0 0
VVECTOR 1 6
SWIDTH1 0 -500
DWIDTH1 0 -6
BITMAP 
EB80
4900
4900
2A00
3600
2200
ENDCHAR
STARTCHAR x
ENCODING 120
SWIDTH 500 0
DWIDTH 6 0
BBX 5 6 0 0
VVECTOR -3 6
SWIDTH1 0 -500
DWIDTH1 0 -6
BITMAP 
D8
50
20
20
50
D8
ENDCHAR
STARTCHAR y
ENCODING 121
SWIDTH 667 0
DWIDTH 8 0
BBX 7 8 0 -2
VVECTOR -1 6
SWIDTH1 0 -667
DWIDTH1 0 -8
BITMAP 
EE
44
28
28
10
10
A0
60
ENDCHAR
STARTCHAR z
ENCODING 122
SWIDTH 583 0
DWIDTH 7 0
BBX 6 6 0 0
VVECTOR -2 6
SWIDTH1 0 -500
DWIDTH1 0 -6
BITMAP 
7C
88
10
20
44
F8
ENDCHAR
STARTCHAR braceleft
ENCODING 123
SWIDTH 583 0
DWIDTH 7 0
BBX 5 11 1 -3
VVECTOR -1 8
SWIDTH1 0 -917
DWIDTH1 0 -11
BITMAP 
18
20
20
20
20
C0
20
20
20
20
18
ENDCHAR
STARTCHAR bar
ENCODING 124
SWIDTH 250 0
DWIDTH 3 0
BBX 1 10 1 -2
VVECTOR -5 8
SWIDTH1 0 -833
DWIDTH1 0 -10
BITMAP 
80
80
80
80
80
80
80
80
80
80
ENDCHAR
STARTCHAR braceright
ENCODING 125
SWIDTH 583 0
DWIDTH 7 0
BBX 5 11 1 -3
VVECTOR -1 8
SWIDTH1 0 -917
DWIDTH1 0 -11
BITMAP 
C0
20
20
20
20
18
20
20
20
20
C0
ENDCHAR
STARTCHAR asciitilde
ENCODING 126
SWIDTH 667 0
DWIDTH 8 0
BBX 6 2 1 3
VVECTOR 0 5
SWIDTH1 0 -167
DWIDTH1 0 -2
BITMAP 
64
98
ENDCHAR
ENDFONT
